<svg width="42" height="42" viewBox="0 0 42 42" fill="none" xmlns="http://www.w3.org/2000/svg">
<path d="M11.1562 31.7461L3.52734 21L11.1563 10.2539C11.8672 9.26953 12.8242 8.77734 14.0273 8.77734L33.2227 8.77734C34.1523 8.77734 34.9727 9.10547 35.6836 9.76172C36.3945 10.4727 36.75 11.293 36.75 12.2227V29.7773C36.75 30.707 36.3945 31.5 35.6836 32.1562C34.9727 32.8672 34.1523 33.2227 33.2227 33.2227H14.0273C12.8242 33.2227 11.8672 32.7305 11.1562 31.7461Z" fill="#001533"/>
<path d="M27.9844 15.4219L22.4062 21L27.9844 26.5781L26.5781 27.9844L21 22.4062L15.4219 27.9844L14.0156 26.5781L19.5938 21L14.0156 15.4219L15.4219 14.0156L21 19.5938L26.5781 14.0156L27.9844 15.4219Z" fill="white"/>
</svg>
