<svg width="42" height="34" viewBox="0 0 42 34" fill="none" xmlns="http://www.w3.org/2000/svg">
<path d="M40.4402 19.1884H34.7069V13.7397H40.4402C41.3017 13.7397 42 13.0498 42 12.1978C42 11.3456 41.3017 10.6554 40.4402 10.6554H34.7069V3.09495C34.7069 1.99133 34.4864 1.18129 34.0516 0.68785C33.6385 0.218432 33.0952 0 32.3429 0C31.625 0 31.1023 0.216925 30.6971 0.683415C30.2674 1.17735 30.0493 1.9889 30.0493 3.09545V10.6563H19.2647L14.6792 3.79468C14.2868 3.18232 13.9178 2.60871 13.5594 2.05811C13.2368 1.56225 12.9221 1.15852 12.6249 0.857072C12.3618 0.590184 12.0619 0.383636 11.7112 0.224876C11.3803 0.0754886 10.9596 0.000502185 10.4619 0.000502185C9.82704 0.000502185 9.25078 0.172486 8.69897 0.525826C8.15292 0.875316 7.77546 1.30741 7.54492 1.84688C7.34257 2.35956 7.2355 3.14516 7.2355 4.15924V10.6558H1.55919C0.697881 10.6559 0 11.3461 0 12.1982C0 13.0502 0.697881 13.7401 1.55927 13.7401H7.23559V19.1894H1.55927C0.697881 19.1894 0 19.8795 0 20.7318C0 21.5836 0.697881 22.2732 1.55927 22.2732H7.23559V30.9053C7.23559 31.9763 7.46317 32.7781 7.91392 33.2876C8.34259 33.7734 8.8861 33.999 9.62418 33.999C10.3363 33.999 10.8756 33.7724 11.3228 33.2857C11.7807 32.7871 12.0123 31.9857 12.0123 30.9054V22.2732H21.7712L27.0522 30.281C27.4194 30.8103 27.7985 31.3446 28.1767 31.8685C28.5178 32.3389 28.8901 32.7534 29.2827 33.0997C29.6364 33.4128 30.0156 33.6423 30.4097 33.7823C30.8154 33.9268 31.2896 34 31.8159 34C33.2441 34 34.7068 33.5677 34.7068 30.3612V22.2732H40.44C41.3015 22.2732 41.9998 21.5826 41.9998 20.7308C42 19.879 41.3017 19.1884 40.4402 19.1884ZM30.0492 13.7396V19.1883H24.9678L21.3268 13.7396H30.0492ZM12.0124 7.47881L14.1079 10.6554H12.0124V7.47881ZM12.0124 19.1884V13.7397H16.1427L19.7367 19.1884H12.0124ZM30.0492 26.7936L27.0292 22.2732H30.0492V26.7936Z" fill="#0066F6"/>
</svg>
