<svg width="24" height="24" viewBox="0 0 24 24" fill="none" xmlns="http://www.w3.org/2000/svg">
<path d="M18.2297 12.4826C17.9906 12.2482 17.9859 11.8592 18.225 11.6201L20.4375 9.37481H9.89062C9.55313 9.37481 9.28125 9.10293 9.28125 8.76543C9.28125 8.42793 9.55313 8.15606 9.89062 8.15606H20.4328L18.2203 5.91075C17.9859 5.67168 17.9859 5.28731 18.225 5.04825C18.4641 4.81387 18.8484 4.81387 19.0875 5.05293L22.3219 8.33418C22.3734 8.39043 22.4203 8.45137 22.4484 8.52637C22.4812 8.60137 22.4953 8.68106 22.4953 8.76075C22.4953 8.92012 22.4344 9.07012 22.3219 9.18731L19.0875 12.4686C18.8531 12.7123 18.4688 12.717 18.2297 12.4826Z" fill="#FD9101"/>
<path d="M5.77026 18.9514C6.00933 18.717 6.01401 18.3279 5.77495 18.0889L3.56714 15.8436H14.1093C14.4468 15.8436 14.7187 15.5717 14.7187 15.2342C14.7187 14.8967 14.4468 14.6248 14.1093 14.6248H3.56714L5.77964 12.3795C6.01401 12.1404 6.01401 11.7561 5.77495 11.517C5.53589 11.2826 5.15151 11.2826 4.91245 11.5217L1.67808 14.8029C1.62651 14.8592 1.57964 14.9201 1.55151 14.9951C1.5187 15.0701 1.50464 15.1498 1.50464 15.2295C1.50464 15.3889 1.56558 15.5389 1.67808 15.6561L4.91245 18.9373C5.14683 19.1811 5.5312 19.1857 5.77026 18.9514Z" fill="#FD9101"/>
</svg>
